<svg width="56" height="56" viewBox="0 0 56 56" fill="none" xmlns="http://www.w3.org/2000/svg">
<path opacity="0.5" d="M32.6667 9.33337H23.3334C14.5344 9.33337 10.1337 9.33337 7.40141 12.068C4.66908 14.8027 4.66675 19.201 4.66675 28C4.66675 36.799 4.66675 41.1997 7.40141 43.932C10.1361 46.6644 14.5344 46.6667 23.3334 46.6667H32.6667C41.4658 46.6667 45.8664 46.6667 48.5987 43.932C51.3311 41.1974 51.3334 36.799 51.3334 28C51.3334 19.201 51.3334 14.8004 48.5987 12.068C45.8641 9.33571 41.4658 9.33337 32.6667 9.33337Z" fill="black"/>
<path d="M30.9167 21C30.9167 20.5359 31.1011 20.0908 31.4293 19.7626C31.7575 19.4344 32.2026 19.25 32.6667 19.25H44.3334C44.7975 19.25 45.2427 19.4344 45.5709 19.7626C45.899 20.0908 46.0834 20.5359 46.0834 21C46.0834 21.4642 45.899 21.9093 45.5709 22.2375C45.2427 22.5657 44.7975 22.75 44.3334 22.75H32.6667C32.2026 22.75 31.7575 22.5657 31.4293 22.2375C31.1011 21.9093 30.9167 21.4642 30.9167 21ZM33.2501 28C33.2501 27.5359 33.4345 27.0908 33.7626 26.7626C34.0908 26.4344 34.536 26.25 35.0001 26.25H44.3334C44.7975 26.25 45.2427 26.4344 45.5709 26.7626C45.899 27.0908 46.0834 27.5359 46.0834 28C46.0834 28.4642 45.899 28.9093 45.5709 29.2375C45.2427 29.5657 44.7975 29.75 44.3334 29.75H35.0001C34.536 29.75 34.0908 29.5657 33.7626 29.2375C33.4345 28.9093 33.2501 28.4642 33.2501 28ZM35.5834 35C35.5834 34.5359 35.7678 34.0908 36.096 33.7626C36.4242 33.4344 36.8693 33.25 37.3334 33.25H44.3334C44.7975 33.25 45.2427 33.4344 45.5709 33.7626C45.899 34.0908 46.0834 34.5359 46.0834 35C46.0834 35.4642 45.899 35.9093 45.5709 36.2375C45.2427 36.5657 44.7975 36.75 44.3334 36.75H37.3334C36.8693 36.75 36.4242 36.5657 36.096 36.2375C35.7678 35.9093 35.5834 35.4642 35.5834 35ZM21.0001 25.6667C22.2378 25.6667 23.4247 25.175 24.2999 24.2999C25.1751 23.4247 25.6667 22.2377 25.6667 21C25.6667 19.7624 25.1751 18.5754 24.2999 17.7002C23.4247 16.825 22.2378 16.3334 21.0001 16.3334C19.7624 16.3334 18.5754 16.825 17.7002 17.7002C16.8251 18.5754 16.3334 19.7624 16.3334 21C16.3334 22.2377 16.8251 23.4247 17.7002 24.2999C18.5754 25.175 19.7624 25.6667 21.0001 25.6667ZM21.0001 39.6667C30.3334 39.6667 30.3334 37.5784 30.3334 35C30.3334 32.4217 26.1567 30.3334 21.0001 30.3334C15.8434 30.3334 11.6667 32.4217 11.6667 35C11.6667 37.5784 11.6667 39.6667 21.0001 39.6667Z" fill="black"/>
</svg>
