<svg width="56" height="56" viewBox="0 0 56 56" fill="none" xmlns="http://www.w3.org/2000/svg">
<path opacity="0.5" d="M7 23.3333C7 14.5343 7 10.1336 9.73467 7.40129C12.4693 4.66896 16.8677 4.66663 25.6667 4.66663H30.3333C39.1323 4.66663 43.533 4.66663 46.2653 7.40129C48.9977 10.136 49 14.5343 49 23.3333V32.6666C49 41.4656 49 45.8663 46.2653 48.5986C43.5307 51.331 39.1323 51.3333 30.3333 51.3333H25.6667C16.8677 51.3333 12.467 51.3333 9.73467 48.5986C7.00233 45.864 7 41.4656 7 32.6666V23.3333Z" fill="#3C71D5"/>
<path d="M38.5443 38.5024C38.9526 38.1851 39.3236 37.8141 40.0633 37.0744L49.2963 27.839C49.5203 27.6174 49.4176 27.2324 49.1213 27.1274C47.6754 26.6262 46.3633 25.801 45.2853 24.7147C44.1991 23.6368 43.3738 22.3246 42.8726 20.8787C42.7676 20.5824 42.3826 20.4797 42.161 20.7037L32.9233 29.9367C32.1836 30.6764 31.8126 31.0474 31.4953 31.4557C31.1173 31.9395 30.7969 32.4575 30.534 33.0097C30.3123 33.4764 30.1466 33.9757 29.8153 34.9697L29.386 36.2531L28.7046 38.2947L28.0676 40.2081C27.9882 40.4479 27.977 40.705 28.0353 40.9508C28.0936 41.1966 28.219 41.4214 28.3977 41.6C28.5763 41.7787 28.801 41.9041 29.0469 41.9624C29.2927 42.0207 29.5498 42.0095 29.7896 41.9301L31.703 41.2931L33.7446 40.6117L35.028 40.1824C36.022 39.8511 36.5213 39.6877 36.988 39.4637C37.5402 39.1993 38.0605 38.8788 38.5443 38.5024ZM52.1896 24.9481C53.1362 24.0012 53.6678 22.7172 53.6676 21.3784C53.6673 20.0396 53.1353 18.7557 52.1885 17.8092C51.2417 16.8627 49.9576 16.3311 48.6188 16.3313C47.28 16.3315 45.9962 16.8636 45.0496 17.8104L44.7556 18.109C44.6137 18.2479 44.508 18.4194 44.4478 18.6085C44.3876 18.7977 44.3747 18.9987 44.4103 19.194C44.457 19.4437 44.5386 19.8124 44.6903 20.2487C44.9936 21.1237 45.5676 22.2717 46.648 23.3521C47.7283 24.4324 48.8763 25.0064 49.7513 25.3097C50.19 25.4614 50.5563 25.5431 50.806 25.5897C51.0013 25.6233 51.2018 25.6094 51.3906 25.5494C51.5794 25.4893 51.751 25.3847 51.891 25.2444L52.1896 24.9481Z" fill="#3C71D5"/>
<path fill-rule="evenodd" clip-rule="evenodd" d="M16.9167 21C16.9167 20.5359 17.1011 20.0908 17.4293 19.7626C17.7575 19.4344 18.2026 19.25 18.6667 19.25H33.8334C34.2975 19.25 34.7427 19.4344 35.0709 19.7626C35.399 20.0908 35.5834 20.5359 35.5834 21C35.5834 21.4641 35.399 21.9092 35.0709 22.2374C34.7427 22.5656 34.2975 22.75 33.8334 22.75H18.6667C18.2026 22.75 17.7575 22.5656 17.4293 22.2374C17.1011 21.9092 16.9167 21.4641 16.9167 21ZM16.9167 30.3333C16.9167 29.8692 17.1011 29.4241 17.4293 29.0959C17.7575 28.7677 18.2026 28.5833 18.6667 28.5833H25.6667C26.1309 28.5833 26.576 28.7677 26.9042 29.0959C27.2324 29.4241 27.4167 29.8692 27.4167 30.3333C27.4167 30.7975 27.2324 31.2426 26.9042 31.5708C26.576 31.899 26.1309 32.0833 25.6667 32.0833H18.6667C18.2026 32.0833 17.7575 31.899 17.4293 31.5708C17.1011 31.2426 16.9167 30.7975 16.9167 30.3333ZM16.9167 39.6667C16.9167 39.2025 17.1011 38.7574 17.4293 38.4292C17.7575 38.101 18.2026 37.9167 18.6667 37.9167H22.1667C22.6309 37.9167 23.076 38.101 23.4042 38.4292C23.7324 38.7574 23.9167 39.2025 23.9167 39.6667C23.9167 40.1308 23.7324 40.5759 23.4042 40.9041C23.076 41.2323 22.6309 41.4167 22.1667 41.4167H18.6667C18.2026 41.4167 17.7575 41.2323 17.4293 40.9041C17.1011 40.5759 16.9167 40.1308 16.9167 39.6667Z" fill="#3C71D5"/>
</svg>
