<svg width="56" height="56" viewBox="0 0 56 56" fill="none" xmlns="http://www.w3.org/2000/svg">
<path opacity="0.5" d="M4.66675 28.0001C4.66675 17.0008 4.66675 11.5011 8.08275 8.08281C11.5034 4.66681 17.0007 4.66681 28.0001 4.66681C38.9994 4.66681 44.4991 4.66681 47.9151 8.08281C51.3334 11.5035 51.3334 17.0008 51.3334 28.0001C51.3334 38.9995 51.3334 44.4991 47.9151 47.9151C44.5014 51.3335 38.9994 51.3335 28.0001 51.3335C17.0007 51.3335 11.5011 51.3335 8.08275 47.9151C4.66675 44.5015 4.66675 38.9995 4.66675 28.0001Z" fill="#EC445B"/>
<path d="M31.4719 15.0407C31.9198 15.1611 32.3016 15.4542 32.5335 15.8558C32.7654 16.2575 32.8283 16.7347 32.7086 17.1827L26.6699 39.7227C26.6103 39.9447 26.5076 40.1528 26.3676 40.3351C26.2275 40.5174 26.053 40.6703 25.8539 40.7852C25.4517 41.0171 24.9739 41.0798 24.5256 40.9594C24.0772 40.839 23.6951 40.5455 23.4631 40.1434C23.2312 39.7412 23.1685 39.2634 23.2889 38.8151L29.3299 16.2774C29.4502 15.8295 29.7434 15.4477 30.145 15.2158C30.5466 14.984 31.0239 14.921 31.4719 15.0407ZM34.9299 19.7634C35.258 19.4357 35.7028 19.2516 36.1666 19.2516C36.6303 19.2516 37.0751 19.4357 37.4032 19.7634L37.8909 20.2487C39.3726 21.7304 40.6092 22.9671 41.4586 24.0801C42.3546 25.2561 42.9846 26.4974 42.9846 28.0001C42.9846 29.5027 42.3546 30.7441 41.4586 31.9201C40.6092 33.0331 39.3726 34.2697 37.8886 35.7514L37.4032 36.2367C37.243 36.4087 37.0498 36.5466 36.8352 36.6422C36.6205 36.7379 36.3888 36.7893 36.1538 36.7935C35.9188 36.7976 35.6854 36.7544 35.4675 36.6664C35.2496 36.5783 35.0517 36.4473 34.8855 36.2812C34.7193 36.115 34.5883 35.917 34.5003 35.6991C34.4123 35.4812 34.3691 35.2478 34.3732 35.0129C34.3773 34.7779 34.4288 34.5462 34.5244 34.3315C34.6201 34.1168 34.758 33.9236 34.9299 33.7634L35.3289 33.3621C36.9202 31.7707 37.9866 30.7021 38.6749 29.7967C39.3352 28.9334 39.4846 28.4294 39.4846 28.0001C39.4846 27.5707 39.3352 27.0667 38.6749 26.2034C37.9866 25.3004 36.9202 24.2294 35.3289 22.6381L34.9299 22.2367C34.6022 21.9086 34.4181 21.4638 34.4181 21.0001C34.4181 20.5363 34.6022 20.0915 34.9299 19.7634ZM18.5966 19.7634C18.9283 19.4543 19.3671 19.286 19.8205 19.294C20.2738 19.302 20.7064 19.4857 21.027 19.8063C21.3477 20.1269 21.5313 20.5595 21.5393 21.0129C21.5473 21.4662 21.379 21.905 21.0699 22.2367L20.6709 22.6381C19.0796 24.2294 18.0156 25.2981 17.3249 26.2034C16.6646 27.0667 16.5176 27.5707 16.5176 28.0001C16.5176 28.4294 16.6646 28.9334 17.3249 29.7967C18.0156 30.6997 19.0796 31.7707 20.6709 33.3621L21.0722 33.7634C21.2393 33.9249 21.3725 34.1181 21.4641 34.3316C21.5558 34.5452 21.6039 34.7748 21.6058 35.0072C21.6077 35.2396 21.5634 35.47 21.4753 35.685C21.3872 35.9 21.2571 36.0954 21.0928 36.2596C20.9284 36.4238 20.7329 36.5537 20.5178 36.6416C20.3027 36.7295 20.0722 36.7736 19.8399 36.7715C19.6075 36.7694 19.3779 36.721 19.1644 36.6292C18.951 36.5374 18.7579 36.404 18.5966 36.2367L18.1112 35.7514C16.6272 34.2697 15.3906 33.0331 14.5412 31.9201C13.6452 30.7441 13.0176 29.5027 13.0176 28.0001C13.0176 26.4974 13.6476 25.2561 14.5412 24.0801C15.3906 22.9671 16.6272 21.7304 18.1112 20.2487L18.5966 19.7634Z" fill="#EC445B"/>
</svg>
