<svg width="56" height="56" viewBox="0 0 56 56" fill="none" xmlns="http://www.w3.org/2000/svg">
<path d="M39.6667 22.1666L41.2021 21.399C45.7428 19.1286 48.0154 17.9923 49.6721 19.019C51.3334 20.0456 51.3334 22.5843 51.3334 27.6593V28.3406C51.3334 33.418 51.3334 35.9543 49.6744 36.981C48.0131 38.0076 45.7427 36.8713 41.2044 34.601L39.6667 33.8333V22.1666Z" fill="#008D62"/>
<path opacity="0.5" fill-rule="evenodd" clip-rule="evenodd" d="M6.78541 12.7447C4.66675 15.33 4.66675 19.1614 4.66675 26.8334V29.1667C4.66675 36.8364 4.66675 40.6724 6.78541 43.2554C7.17296 43.7275 7.60593 44.1605 8.07808 44.548C10.6634 46.6667 14.4947 46.6667 22.1667 46.6667C29.8364 46.6667 33.6724 46.6667 36.2554 44.548C36.7283 44.1591 37.1592 43.7283 37.5481 43.2554C39.6667 40.67 39.6667 36.8387 39.6667 29.1667V26.8334C39.6667 19.1637 39.6667 15.3277 37.5481 12.7447C37.1605 12.2726 36.7276 11.8396 36.2554 11.452C33.6701 9.33337 29.8387 9.33337 22.1667 9.33337C14.4971 9.33337 10.6611 9.33337 8.07808 11.452C7.60593 11.8396 7.17296 12.2726 6.78541 12.7447Z" fill="#008D62"/>
<path d="M32.6667 19.8334C32.6667 20.293 32.5762 20.7481 32.4003 21.1728C32.2244 21.5974 31.9666 21.9832 31.6416 22.3082C31.3166 22.6333 30.9308 22.8911 30.5061 23.067C30.0815 23.2428 29.6264 23.3334 29.1667 23.3334C28.7071 23.3334 28.252 23.2428 27.8274 23.067C27.4027 22.8911 27.0169 22.6333 26.6919 22.3082C26.3669 21.9832 26.1091 21.5974 25.9332 21.1728C25.7573 20.7481 25.6667 20.293 25.6667 19.8334C25.6667 18.9051 26.0355 18.0149 26.6919 17.3585C27.3483 16.7021 28.2385 16.3334 29.1667 16.3334C30.095 16.3334 30.9852 16.7021 31.6416 17.3585C32.298 18.0149 32.6667 18.9051 32.6667 19.8334Z" fill="#008D62"/>
</svg>
