<svg width="24" height="24" viewBox="0 0 24 24" fill="none" xmlns="http://www.w3.org/2000/svg">
<path d="M21.323 3.78589L15.107 10.4159L21.287 15.2709C22 14.1689 22 12.5349 22 9.50189C22 6.51889 22 4.88889 21.323 3.78589ZM15.267 19.1999L13.932 16.5299C13.089 14.8429 12.668 13.9999 12 13.9999C11.332 13.9999 10.911 14.8429 10.068 16.5299L8.73302 19.1999C8.22102 20.2239 7.96502 20.7369 8.00302 21.0589C8.06002 21.5239 8.41002 21.9009 8.87102 21.9889C9.18902 22.0509 9.71802 21.8319 10.776 21.3939C11.166 21.2319 11.363 21.1509 11.563 21.1099C11.851 21.0499 12.149 21.0499 12.437 21.1099C12.637 21.1509 12.833 21.2319 13.224 21.3939C14.282 21.8319 14.81 22.0509 15.129 21.9899C15.589 21.8999 15.939 21.5249 15.996 21.0589C16.036 20.7359 15.779 20.2229 15.267 19.1999Z" fill="white"/>
<path opacity="0.5" d="M2 9.49993V9.53993C2 12.7999 2.004 14.4359 2.908 15.5379C3.07467 15.7413 3.25933 15.9259 3.462 16.0919C3.642 16.2399 3.839 16.3656 4.053 16.4689C5.15 16.9999 6.75 16.9999 9.497 16.9999H14.5L15.843 16.9969C16.683 16.9919 17.393 16.9739 18 16.9209C18.944 16.8389 19.642 16.6709 20.204 16.3289L13.548 11.0989L2.961 3.39893L2.908 3.46293C2 4.56893 2 6.21293 2 9.49993Z" fill="white"/>
<path d="M14.5 2H9.49998C6.88398 2 5.30898 2 4.21698 2.458L13.906 9.504L20.272 2.714C19.168 2 17.534 2 14.5 2Z" fill="white"/>
</svg>
