<svg width="24" height="24" viewBox="0 0 24 24" fill="none" xmlns="http://www.w3.org/2000/svg">
<path d="M2.162 8.5C2 9.603 2 11.05 2 13C2 16.771 2 18.657 3.172 19.828C4.344 20.999 6.229 21 10 21H14C17.771 21 19.657 21 20.828 19.828C21.999 18.656 22 16.771 22 13C22 11.05 22 9.604 21.838 8.5C19.561 9.98 18.102 10.924 16.75 11.505V12C16.7523 12.1989 16.6754 12.3906 16.5363 12.5328C16.3973 12.6751 16.2074 12.7562 16.0085 12.7585C15.8096 12.7608 15.6179 12.6839 15.4757 12.5448C15.3334 12.4058 15.2523 12.2159 15.25 12.017C13.1197 12.5786 10.8803 12.5786 8.75 12.017C8.74775 12.2159 8.66657 12.4058 8.52432 12.5448C8.38207 12.6839 8.19041 12.7608 7.9915 12.7585C7.79259 12.7562 7.60272 12.6751 7.46366 12.5328C7.3246 12.3906 7.24775 12.1989 7.25 12V11.505C5.898 10.923 4.44 9.98 2.162 8.5Z" fill="white"/>
<path fill-rule="evenodd" clip-rule="evenodd" d="M10.581 2.25006H10.561C10.447 2.25006 10.359 2.25006 10.275 2.25506C9.75545 2.28664 9.25551 2.46504 8.83332 2.76951C8.41113 3.07399 8.08402 3.49203 7.89002 3.97506C7.84743 4.08847 7.80741 4.20283 7.77002 4.31806L7.76602 4.33006C7.66314 4.6026 7.4891 4.84259 7.26202 5.02506C7.03468 5.03239 6.81702 5.04239 6.60902 5.05506C4.96502 5.15106 3.92202 5.42106 3.17202 6.17206C2.92803 6.41532 2.72777 6.6988 2.58002 7.01006C2.63802 7.03006 2.69368 7.05706 2.74702 7.09106C4.84702 8.45606 6.16702 9.31106 7.26402 9.85806C7.29982 9.67535 7.40229 9.51249 7.55151 9.40116C7.70073 9.28982 7.88603 9.23797 8.07136 9.25568C8.2567 9.27339 8.42882 9.3594 8.55425 9.49698C8.67969 9.63456 8.74947 9.81388 8.75002 10.0001V10.4581C10.87 11.0981 13.13 11.0981 15.25 10.4581V10.0001C15.2493 9.81297 15.3185 9.63236 15.444 9.49368C15.5696 9.35499 15.7425 9.26824 15.9287 9.25046C16.115 9.23267 16.3011 9.28514 16.4507 9.39755C16.6002 9.50996 16.7023 9.67421 16.737 9.85806C17.833 9.31006 19.153 8.45606 21.253 7.09106C21.3054 7.05767 21.3614 7.03049 21.42 7.01006C21.2723 6.6988 21.072 6.41532 20.828 6.17206C20.078 5.42206 19.035 5.15206 17.391 5.05406C17.1937 5.04339 16.9877 5.03406 16.773 5.02606L16.733 4.99206C16.5008 4.79141 16.3207 4.5375 16.208 4.25206L16.205 4.24306C16.169 4.13606 16.142 4.05206 16.11 3.97406C15.9159 3.49122 15.5887 3.07338 15.1665 2.76909C14.7443 2.4648 14.2445 2.28656 13.725 2.25506C13.6301 2.25068 13.535 2.24901 13.44 2.25006H10.581ZM14.818 4.81606L14.813 4.80506L14.808 4.79306L14.804 4.78106L14.8 4.77106L14.798 4.76606L14.794 4.75406L14.79 4.74206L14.788 4.73606L14.785 4.72806L14.783 4.72106L14.781 4.71506C14.7618 4.65424 14.7411 4.59389 14.719 4.53406C14.6308 4.31433 14.482 4.12418 14.2899 3.98574C14.0978 3.8473 13.8704 3.76626 13.634 3.75206C13.5624 3.74946 13.4907 3.7488 13.419 3.75006H10.581C10.438 3.75006 10.398 3.75006 10.366 3.75206C10.1298 3.76645 9.90261 3.84757 9.71072 3.986C9.51883 4.12443 9.37017 4.31448 9.28202 4.53406L9.27902 4.54106L9.27102 4.56206C9.2438 4.6382 9.21813 4.71488 9.19402 4.79206L9.19202 4.79806L9.18902 4.80506L9.18702 4.81306L9.18502 4.81906L9.18102 4.83106L9.17702 4.84306L9.17502 4.84806L9.17102 4.85806L9.16702 4.87006L9.16202 4.88206L9.15802 4.89206L9.15702 4.89306L9.11302 5.00106L10 5.00006H14.896C14.868 4.93961 14.842 4.87824 14.818 4.81606Z" fill="white"/>
</svg>
