<svg width="24" height="24" viewBox="0 0 24 24" fill="none" xmlns="http://www.w3.org/2000/svg">
<path fill-rule="evenodd" clip-rule="evenodd" d="M22 7.00001C22.0001 7.85141 21.7829 8.68875 21.3688 9.43267C20.9547 10.1766 20.3575 10.8024 19.6338 11.2509C18.9101 11.6994 18.0839 11.9557 17.2334 11.9954C16.3829 12.0351 15.5364 11.8571 14.774 11.478C14.5971 11.3868 14.3931 11.3629 14.2 11.411L13.087 11.709C12.9768 11.7385 12.8608 11.7385 12.7506 11.709C12.6404 11.6794 12.5399 11.6214 12.4593 11.5407C12.3786 11.4601 12.3206 11.3596 12.291 11.2494C12.2615 11.1392 12.2615 11.0232 12.291 10.913L12.589 9.80001C12.6371 9.60689 12.6132 9.40287 12.522 9.22601C12.1867 8.55103 12.0084 7.80899 12.0003 7.05538C11.9922 6.30176 12.1546 5.55607 12.4753 4.87405C12.796 4.19203 13.2667 3.59133 13.8523 3.11687C14.4379 2.64241 15.1231 2.30647 15.8568 2.13415C16.5905 1.96184 17.3537 1.95761 18.0892 2.12179C18.8248 2.28597 19.5137 2.61431 20.1045 3.08226C20.6953 3.5502 21.1726 4.14565 21.5009 4.82407C21.8291 5.5025 21.9997 6.24635 22 7.00001ZM17 4.81301C17.518 4.81301 17.938 5.23301 17.938 5.75001V6.06301H18.25C18.4986 6.06301 18.7371 6.16178 18.9129 6.3376C19.0887 6.51341 19.1875 6.75187 19.1875 7.00051C19.1875 7.24915 19.0887 7.48761 18.9129 7.66342C18.7371 7.83924 18.4986 7.93801 18.25 7.93801H17.938V8.25001C17.938 8.49865 17.8392 8.73711 17.6634 8.91292C17.4876 9.08874 17.2491 9.18751 17.0005 9.18751C16.7519 9.18751 16.5134 9.08874 16.3376 8.91292C16.1618 8.73711 16.063 8.49865 16.063 8.25001V7.93801H15.75C15.5014 7.93801 15.2629 7.83924 15.0871 7.66342C14.9113 7.48761 14.8125 7.24915 14.8125 7.00051C14.8125 6.75187 14.9113 6.51341 15.0871 6.3376C15.2629 6.16178 15.5014 6.06301 15.75 6.06301H16.063V5.75001C16.063 5.23201 16.483 4.81301 17 4.81301Z" fill="white"/>
<path d="M8.03803 7.31598L8.68703 8.47898C9.27203 9.52898 9.03703 10.905 8.11503 11.828C8.11503 11.828 6.99503 12.947 9.02503 14.976C11.052 17.003 12.172 15.886 12.172 15.886C13.095 14.963 14.472 14.728 15.521 15.313L16.684 15.963C18.269 16.847 18.456 19.069 17.063 20.463C16.226 21.299 15.2 21.951 14.067 21.993C12.159 22.066 8.91803 21.583 5.66703 18.333C2.41703 15.082 1.93403 11.841 2.00703 9.93298C2.05003 8.79998 2.70103 7.77398 3.53703 6.93698C4.93103 5.54398 7.15303 5.73098 8.03703 7.31698" fill="white"/>
</svg>
