<svg width="24" height="24" viewBox="0 0 24 24" fill="none" xmlns="http://www.w3.org/2000/svg">
<g clip-path="url(#clip0_576_75)">
<path d="M23.9527 4.56987C23.0543 4.96433 22.103 5.2251 21.129 5.34387C22.1559 4.72775 22.9246 3.76023 23.2927 2.62062C22.3214 3.18366 21.2644 3.58371 20.1637 3.80487C19.4235 3.01396 18.4429 2.48946 17.3742 2.31274C16.3054 2.13602 15.2082 2.31697 14.2528 2.8275C13.2974 3.33803 12.5372 4.1496 12.0901 5.13631C11.643 6.12301 11.5341 7.22968 11.7802 8.28462C7.69047 8.09337 4.06497 6.12837 1.64022 3.15987C1.1989 3.91056 0.968054 4.76632 0.971974 5.63712C0.971703 6.44658 1.17115 7.2436 1.55265 7.95753C1.93414 8.67145 2.48589 9.28022 3.15897 9.72987C2.37861 9.70681 1.61521 9.49666 0.932974 9.11712V9.17637C0.93316 10.3125 1.32596 11.4137 2.04487 12.2935C2.76378 13.1733 3.76463 13.7776 4.87797 14.0041C4.4561 14.1165 4.02155 14.1742 3.58497 14.1759C3.26922 14.1759 2.96772 14.1451 2.66697 14.0896C2.98387 15.0674 3.59773 15.9221 4.42311 16.5347C5.24848 17.1472 6.24431 17.4873 7.27197 17.5074C5.53075 18.8709 3.3823 19.6107 1.17072 19.6081C0.779003 19.6097 0.387544 19.5876 -0.00152588 19.5421C2.25461 20.9876 4.87827 21.755 7.55772 21.7531C16.608 21.7531 21.5535 14.2569 21.5535 7.76487C21.5535 7.55787 21.5535 7.34712 21.5377 7.13562C22.5055 6.44268 23.3393 5.57967 23.9985 4.58862L23.9527 4.56987Z" fill="#699BF7"/>
</g>
<defs>
<clipPath id="clip0_576_75">
<rect width="24" height="24" fill="white"/>
</clipPath>
</defs>
</svg>
