<svg width="24" height="24" viewBox="0 0 24 24" fill="none" xmlns="http://www.w3.org/2000/svg">
<path d="M22 8.16192V8.23492C22 9.09492 22 9.52592 21.793 9.87792C21.586 10.2299 21.209 10.4389 20.457 10.8579L19.664 11.2979C20.21 9.44992 20.393 7.46392 20.46 5.76592L20.47 5.54492L20.472 5.49292C21.123 5.71892 21.489 5.88792 21.717 6.20392C22 6.59692 22 7.11892 22 8.16192ZM2 8.16192V8.23492C2 9.09492 2 9.52592 2.207 9.87792C2.414 10.2299 2.791 10.4389 3.543 10.8579L4.337 11.2979C3.79 9.44992 3.607 7.46392 3.54 5.76592L3.53 5.54492L3.529 5.49292C2.877 5.71892 2.511 5.88792 2.283 6.20392C2 6.59692 2 7.11992 2 8.16192Z" fill="white"/>
<path fill-rule="evenodd" clip-rule="evenodd" d="M16.377 2.34698C14.9302 2.10998 13.4661 1.99391 12 1.99998C10.217 1.99998 8.74701 2.15698 7.62301 2.34698C6.48401 2.53898 5.91501 2.63498 5.43901 3.22098C4.96401 3.80698 4.98901 4.43998 5.03901 5.70598C5.21201 10.054 6.15001 15.486 11.25 15.966V19.5H9.82001C9.58891 19.5001 9.365 19.5803 9.18634 19.7269C9.00768 19.8734 8.8853 20.0774 8.84001 20.304L8.65001 21.25H6.00001C5.80109 21.25 5.61033 21.329 5.46968 21.4697C5.32902 21.6103 5.25001 21.8011 5.25001 22C5.25001 22.1989 5.32902 22.3897 5.46968 22.5303C5.61033 22.671 5.80109 22.75 6.00001 22.75H18C18.1989 22.75 18.3897 22.671 18.5303 22.5303C18.671 22.3897 18.75 22.1989 18.75 22C18.75 21.8011 18.671 21.6103 18.5303 21.4697C18.3897 21.329 18.1989 21.25 18 21.25H15.35L15.16 20.304C15.1147 20.0774 14.9923 19.8734 14.8137 19.7269C14.635 19.5803 14.4111 19.5001 14.18 19.5H12.75V15.966C17.85 15.486 18.789 10.055 18.961 5.70598C19.011 4.43998 19.037 3.80598 18.561 3.22098C18.085 2.63498 17.516 2.53898 16.377 2.34698ZM12.787 5.80698C12.9241 5.86375 13.0412 5.95989 13.1236 6.08325C13.206 6.2066 13.25 6.35163 13.25 6.49998V10.5C13.25 10.6989 13.171 10.8897 13.0303 11.0303C12.8897 11.171 12.6989 11.25 12.5 11.25C12.3011 11.25 12.1103 11.171 11.9697 11.0303C11.829 10.8897 11.75 10.6989 11.75 10.5V8.30998L11.53 8.52998C11.4613 8.60367 11.3785 8.66277 11.2865 8.70376C11.1945 8.74476 11.0952 8.7668 10.9945 8.76857C10.8938 8.77035 10.7938 8.75183 10.7004 8.71411C10.607 8.67638 10.5222 8.62024 10.451 8.54902C10.3797 8.4778 10.3236 8.39297 10.2859 8.29958C10.2482 8.20619 10.2296 8.10616 10.2314 8.00546C10.2332 7.90476 10.2552 7.80544 10.2962 7.71344C10.3372 7.62144 10.3963 7.53864 10.47 7.46998L11.97 5.96998C12.0748 5.86509 12.2084 5.79362 12.3538 5.76461C12.4992 5.7356 12.65 5.75034 12.787 5.80698Z" fill="white"/>
</svg>
