<svg width="56" height="56" viewBox="0 0 56 56" fill="none" xmlns="http://www.w3.org/2000/svg">
<path d="M37.3334 4.6665H35.0001C31.7007 4.6665 30.0511 4.6665 29.0267 5.69317C28.0001 6.71517 28.0001 8.36484 28.0001 11.6665C28.0001 14.9682 28.0001 16.6155 29.0267 17.6398C30.0487 18.6665 31.6984 18.6665 35.0001 18.6665H37.3334C40.6328 18.6665 42.2824 18.6665 43.3067 17.6398C43.9717 16.9772 44.2074 16.0508 44.2867 14.5832H44.3334L48.1018 16.1535C49.5648 16.7625 50.2951 17.0658 50.8131 16.7205C51.3334 16.3752 51.3334 15.5818 51.3334 13.9998V9.33317C51.3334 7.75117 51.3334 6.95784 50.8131 6.6125C50.2951 6.26717 49.5648 6.5705 48.1018 7.1795L44.3334 8.74984H44.2867C44.2051 7.28217 43.9717 6.35584 43.3067 5.69317C42.2847 4.6665 40.6351 4.6665 37.3334 4.6665ZM18.6317 40.8332C12.0051 40.8332 8.69175 40.8332 6.63608 38.7822C5.30141 37.4545 4.83008 35.6018 4.66675 32.6665V30.3332H51.3334V32.6665C51.1701 35.6018 50.6988 37.4545 49.3641 38.7822C47.3061 40.8332 43.9951 40.8332 37.3708 40.8332H29.7571V50.1665H37.3684C38.3391 50.1665 39.1254 50.9505 39.1254 51.9165C39.1254 52.8825 38.3391 53.6665 37.3684 53.6665H18.6317C18.4013 53.6674 18.173 53.6228 17.9599 53.5353C17.7468 53.4478 17.553 53.319 17.3898 53.1564C17.2265 52.9938 17.097 52.8006 17.0086 52.5878C16.9202 52.375 16.8747 52.1469 16.8747 51.9165C16.8747 50.9505 17.6611 50.1665 18.6317 50.1665H26.2431V40.8332H18.6317Z" fill="#D57B3C"/>
<path opacity="0.5" d="M51.3334 23.3332V25.6665C51.3334 26.9545 51.3194 29.2832 51.303 30.3332H4.66668C4.65035 29.2832 4.66668 26.9545 4.66668 25.6665V23.3332C4.66668 14.5342 4.66668 10.1335 7.40135 7.40117C10.136 4.66884 14.5344 4.6665 23.3334 4.6665H25.4754C24.997 5.5625 24.7754 6.5005 24.6587 7.35917C24.5 8.54917 24.5 9.99117 24.5 11.4752V11.8578C24.5 13.3418 24.5 14.7838 24.6587 15.9738C24.8407 17.3155 25.2794 18.8438 26.5487 20.1155C27.8204 21.3872 29.351 21.8258 30.6927 22.0055C31.8827 22.1688 33.3247 22.1688 34.8087 22.1665H37.5247C39.0087 22.1665 40.4507 22.1665 41.6407 22.0078C42.9824 21.8258 44.5107 21.3872 45.7824 20.1178C46.053 19.8441 46.2879 19.5625 46.487 19.2732L46.7554 19.3852L46.8884 19.4388C47.495 19.6932 48.265 20.0128 48.9534 20.1878C49.497 20.3278 50.3674 20.4725 51.3287 20.2508C51.3318 21.2137 51.3334 22.2412 51.3334 23.3332Z" fill="#D57B3C"/>
</svg>
