<svg width="56" height="56" viewBox="0 0 56 56" fill="none" xmlns="http://www.w3.org/2000/svg">
<path fill-rule="evenodd" clip-rule="evenodd" d="M33.7096 38.213L47.3526 24.6097C49.3173 22.652 50.2996 21.672 50.8153 20.4284C51.3309 19.1847 51.3333 17.7964 51.3333 15.0267V13.7037C51.3333 9.44302 51.3333 7.31269 50.0056 5.98969C48.6779 4.66669 46.5429 4.66669 42.2706 4.66669H40.9406C38.1639 4.66669 36.7756 4.66669 35.5273 5.18235C34.2766 5.69802 33.2943 6.67802 31.3273 8.63569L17.6866 22.239C15.3906 24.5257 13.9673 25.9467 13.4166 27.3164C13.246 27.7326 13.1573 28.1778 13.1553 28.6277C13.1553 30.499 14.6649 32.0064 17.6866 35.0187L18.0926 35.4224L22.8479 30.5947C23.0093 30.4309 23.2013 30.3005 23.413 30.2109C23.6247 30.1214 23.852 30.0744 24.0819 30.0726C24.3118 30.0709 24.5398 30.1145 24.7528 30.2008C24.9659 30.2872 25.1598 30.4147 25.3236 30.576C25.4874 30.7374 25.6178 30.9294 25.7074 31.1411C25.7969 31.3528 25.8439 31.5801 25.8457 31.81C25.8474 32.0399 25.8038 32.2679 25.7175 32.4809C25.6311 32.694 25.5036 32.8879 25.3423 33.0517L20.5706 37.8934L20.8903 38.213C23.9119 41.223 25.4239 42.7304 27.2999 42.7304C27.7153 42.7304 28.1119 42.658 28.5109 42.511C29.9179 41.993 31.3553 40.5604 33.7096 38.213ZM40.1193 22.239C39.2682 23.087 38.1158 23.5631 36.9144 23.5631C35.7131 23.5631 34.5607 23.087 33.7096 22.239C33.2884 21.8205 32.9542 21.3228 32.7261 20.7746C32.498 20.2264 32.3806 19.6385 32.3806 19.0447C32.3806 18.4509 32.498 17.863 32.7261 17.3148C32.9542 16.7666 33.2884 16.2689 33.7096 15.8504C34.5607 15.0024 35.7131 14.5263 36.9144 14.5263C38.1158 14.5263 39.2682 15.0024 40.1193 15.8504C40.5404 16.2689 40.8747 16.7666 41.1028 17.3148C41.3309 17.863 41.4483 18.4509 41.4483 19.0447C41.4483 19.6385 41.3309 20.2264 41.1028 20.7746C40.8747 21.3228 40.5404 21.8205 40.1193 22.239Z" fill="#CB5454"/>
<path opacity="0.5" d="M21.0794 13.9137L15.1457 19.8333C14.0561 20.9207 13.0551 21.917 12.2641 22.82C11.7288 23.4153 11.2456 24.0554 10.8197 24.7333L10.7637 24.675L10.5421 24.4557C9.50836 23.457 8.29562 22.6623 6.9674 22.113L6.6804 21.9963L5.79607 21.6463C5.52067 21.5378 5.27664 21.3623 5.08601 21.1358C4.89539 20.9093 4.76417 20.6389 4.7042 20.349C4.64423 20.0591 4.6574 19.7589 4.74251 19.4753C4.82763 19.1918 4.98202 18.9339 5.19174 18.725C7.80507 16.1163 10.9434 12.9873 12.4601 12.3597C13.7773 11.8094 15.2187 11.6248 16.6321 11.8253C17.9061 12.0143 19.1101 12.67 21.0794 13.9137ZM31.2131 45.0637C31.6914 45.549 32.0064 45.892 32.2957 46.2583C32.6737 46.7421 33.0113 47.2539 33.3084 47.7937C33.6397 48.4003 33.8987 49.0467 34.4144 50.3417C34.5156 50.5866 34.6757 50.8027 34.8805 50.9709C35.0852 51.1391 35.3283 51.2542 35.5882 51.3059C35.8481 51.3576 36.1168 51.3443 36.3703 51.2673C36.6239 51.1903 36.8545 51.0519 37.0417 50.8643L37.2377 50.6707C39.8511 48.0643 42.9894 44.9353 43.6194 43.4257C44.1728 42.1142 44.3575 40.6765 44.1537 39.2677C43.9647 37.996 43.3091 36.7943 42.0607 34.8297L36.1061 40.7657C34.9907 41.8787 33.9687 42.8983 33.0424 43.6963C32.4894 44.177 31.8827 44.653 31.2131 45.0637Z" fill="#CB5454"/>
</svg>
