<svg width="500" height="500" viewBox="0 0 500 500" fill="none" xmlns="http://www.w3.org/2000/svg">
<rect width="500" height="500" fill="white"/>
<path fill-rule="evenodd" clip-rule="evenodd" d="M209.23 56.343C206.574 58.777 203.793 61.0654 200.9 63.1988C195.885 66.6353 190.248 69.0064 184.324 70.2092C181.749 70.7247 179.057 70.9481 173.689 71.3776C160.209 72.4773 153.461 73.0271 147.84 75.0547C141.412 77.3682 135.573 81.1237 130.753 86.0449C125.933 90.9661 122.255 96.9278 119.989 103.492C118.004 109.231 117.465 116.121 116.388 129.884C116.195 133.522 115.813 137.147 115.244 140.743C114.066 146.791 111.743 152.548 108.378 157.668C106.914 159.902 105.164 161.998 101.663 166.173C92.8956 176.689 88.5034 181.947 85.9287 187.445C79.9883 200.16 79.9883 214.937 85.9287 227.652C88.5034 233.15 92.8956 238.408 101.663 248.924C105.164 253.099 106.914 255.195 108.378 257.429C111.743 262.55 114.066 268.306 115.244 274.354C115.749 276.983 115.967 279.732 116.388 285.213C117.465 298.976 118.004 305.866 119.989 311.605C122.255 318.169 125.933 324.131 130.753 329.052C135.573 333.973 141.412 337.729 147.84 340.042C153.461 342.07 160.209 342.62 173.689 343.719C179.057 344.149 181.749 344.372 184.324 344.888C190.248 346.091 195.885 348.479 200.9 351.898C203.088 353.393 205.141 355.18 209.23 358.754C219.529 367.706 224.679 372.191 230.064 374.82C242.517 380.885 256.989 380.885 269.442 374.82C274.827 372.191 279.977 367.706 290.275 358.754C294.365 355.18 296.418 353.393 298.606 351.898C303.62 348.462 309.258 346.091 315.181 344.888C317.756 344.372 320.449 344.149 325.817 343.719C339.296 342.62 346.045 342.07 351.665 340.042C358.094 337.729 363.933 333.973 368.753 329.052C373.572 324.131 377.25 318.169 379.516 311.605C381.502 305.866 382.041 298.976 383.118 285.213C383.538 279.732 383.757 276.983 384.262 274.354C385.44 268.306 387.779 262.55 391.128 257.429C392.592 255.195 394.342 253.099 397.842 248.924C406.61 238.408 411.002 233.15 413.577 227.652C419.517 214.937 419.517 200.16 413.577 187.445C411.002 181.947 406.61 176.689 397.842 166.173C395.459 163.461 393.217 160.622 391.128 157.668C387.76 152.548 385.426 146.795 384.262 140.743C383.693 137.147 383.311 133.522 383.118 129.884C382.041 116.121 381.502 109.231 379.516 103.492C377.25 96.9278 373.572 90.9661 368.753 86.0449C363.933 81.1237 358.094 77.3682 351.665 75.0547C346.045 73.0271 339.296 72.4773 325.817 71.3776C322.254 71.1803 318.704 70.7903 315.181 70.2092C309.255 69.0206 303.62 66.6373 298.606 63.1988C295.712 61.0654 292.932 58.777 290.275 56.343C279.977 47.3909 274.827 42.9063 269.442 40.2774C263.295 37.2734 256.567 35.7141 249.753 35.7141C242.938 35.7141 236.21 37.2734 230.064 40.2774C224.679 42.9063 219.529 47.3909 209.23 56.343ZM323.343 170.83C325.722 168.172 327.005 164.68 326.925 161.08C326.846 157.481 325.41 154.051 322.916 151.506C320.423 148.96 317.064 147.494 313.539 147.413C310.014 147.331 306.594 148.641 303.991 151.07L222.373 234.405L195.515 206.999C192.912 204.57 189.492 203.26 185.966 203.341C182.441 203.423 179.082 204.889 176.589 207.434C174.096 209.98 172.66 213.41 172.58 217.009C172.501 220.608 173.784 224.101 176.162 226.758L212.68 264.044C215.248 266.661 218.728 268.131 222.356 268.131C225.984 268.131 229.464 266.661 232.033 264.044L323.343 170.83Z" fill="#008D62"/>
<circle cx="336.171" cy="414.745" r="38.4085" fill="#018D62"/>
</svg>
