<svg width="500" height="500" viewBox="0 0 500 500" fill="none" xmlns="http://www.w3.org/2000/svg">
<path fill-rule="evenodd" clip-rule="evenodd" d="M209.757 61.6289C207.101 64.0628 204.32 66.3513 201.427 68.4847C196.412 71.9211 190.774 74.2923 184.851 75.4951C182.276 76.0106 179.583 76.2339 174.215 76.6635C160.736 77.7632 153.988 78.313 148.367 80.3405C141.938 82.6541 136.099 86.4096 131.28 91.3308C126.46 96.252 122.782 102.214 120.516 108.777C118.53 114.516 117.992 121.407 116.915 135.17C116.721 138.808 116.339 142.432 115.77 146.029C114.592 152.077 112.27 157.833 108.904 162.954C107.44 165.187 105.69 167.284 102.19 171.459C93.4222 181.975 89.03 187.233 86.4553 192.731C80.5149 205.446 80.5149 220.223 86.4553 232.938C89.03 238.436 93.4222 243.694 102.19 254.21C105.69 258.385 107.44 260.481 108.904 262.715C112.27 267.835 114.592 273.592 115.77 279.64C116.275 282.269 116.494 285.018 116.915 290.499C117.992 304.262 118.53 311.152 120.516 316.891C122.782 323.455 126.46 329.417 131.28 334.338C136.099 339.259 141.938 343.015 148.367 345.328C153.988 347.356 160.736 347.906 174.215 349.005C179.583 349.435 182.276 349.658 184.851 350.174C190.774 351.376 196.412 353.765 201.427 357.184C203.614 358.679 205.667 360.466 209.757 364.04C220.056 372.992 225.205 377.477 230.59 380.105C243.043 386.171 257.516 386.171 269.969 380.105C275.354 377.477 280.503 372.992 290.802 364.04C294.891 360.466 296.944 358.679 299.132 357.184C304.147 353.748 309.784 351.376 315.708 350.174C318.283 349.658 320.975 349.435 326.344 349.005C339.823 347.906 346.571 347.356 352.192 345.328C358.62 343.015 364.459 339.259 369.279 334.338C374.099 329.417 377.777 323.455 380.043 316.891C382.029 311.152 382.567 304.262 383.644 290.499C384.065 285.018 384.284 282.269 384.788 279.64C385.966 273.592 388.306 267.835 391.654 262.715C393.118 260.481 394.869 258.385 398.369 254.21C407.137 243.694 411.529 238.436 414.103 232.938C420.044 220.223 420.044 205.446 414.103 192.731C411.529 187.233 407.137 181.975 398.369 171.459C395.985 168.747 393.744 165.908 391.654 162.954C388.287 157.834 385.953 152.081 384.788 146.029C384.219 142.432 383.837 138.808 383.644 135.17C382.567 121.407 382.029 114.516 380.043 108.777C377.777 102.214 374.099 96.252 369.279 91.3308C364.459 86.4096 358.62 82.6541 352.192 80.3405C346.571 78.313 339.823 77.7632 326.344 76.6635C322.781 76.4662 319.23 76.0762 315.708 75.4951C309.781 74.3064 304.146 71.9232 299.132 68.4847C296.239 66.3513 293.458 64.0628 290.802 61.6289C280.503 52.6768 275.354 48.1922 269.969 45.5633C263.822 42.5593 257.094 41 250.279 41C243.465 41 236.737 42.5593 230.59 45.5633C225.205 48.1922 220.056 52.6768 209.757 61.6289ZM323.87 176.115C326.248 173.458 327.531 169.965 327.452 166.366C327.372 162.767 325.936 159.337 323.443 156.791C320.95 154.246 317.591 152.78 314.066 152.698C310.54 152.617 307.12 153.927 304.517 156.356L222.9 239.691L196.042 212.285C193.438 209.856 190.018 208.546 186.493 208.627C182.968 208.708 179.609 210.174 177.116 212.72C174.622 215.266 173.187 218.696 173.107 222.295C173.028 225.894 174.311 229.386 176.689 232.044L213.207 269.33C215.775 271.947 219.255 273.417 222.883 273.417C226.511 273.417 229.991 271.947 232.559 269.33L323.87 176.115Z" fill="#008D62"/>
<circle cx="336.698" cy="420.031" r="38.4085" fill="#018D62"/>
</svg>
